<svg id="visual" viewBox="0 0 540 960" width="540" height="960" xmlns="http://www.w3.org/2000/svg" xmlns:xlink="http://www.w3.org/1999/xlink" version="1.1"><rect x="0" y="0" width="540" height="960" fill="#FF00B7"></rect><defs><linearGradient id="grad1_0" x1="0%" y1="0%" x2="100%" y2="100%"><stop offset="30%" stop-color="#ff00b7" stop-opacity="1"></stop><stop offset="70%" stop-color="#ff00b7" stop-opacity="1"></stop></linearGradient></defs><defs><linearGradient id="grad2_0" x1="0%" y1="0%" x2="100%" y2="100%"><stop offset="30%" stop-color="#ff00b7" stop-opacity="1"></stop><stop offset="70%" stop-color="#ff00b7" stop-opacity="1"></stop></linearGradient></defs><g transform="translate(540, 0)"><path d="M0 378C-50.2 373.4 -100.4 368.7 -144.7 349.2C-188.9 329.7 -227.1 295.3 -258.1 258.1C-289.1 220.9 -312.9 180.9 -331.7 137.4C-350.5 93.9 -364.2 47 -378 0L0 0Z" fill="#D900FD"></path></g><g transform="translate(0, 960)"><path d="M0 -378C47.2 -368.9 94.4 -359.8 142.4 -343.7C190.4 -327.6 239.2 -304.5 267.3 -267.3C295.4 -230 302.8 -178.6 317.8 -131.6C332.8 -84.7 355.4 -42.4 378 0L0 0Z" fill="#D900FD"></path></g></svg>