<svg width="1800" height="2844" viewBox="0 0 1800 2844" fill="none" xmlns="http://www.w3.org/2000/svg">
<g clip-path="url(#clip0_3_2)">
<g filter="url(#filter0_d_3_2)">
<path d="M1800 0H0V2844H1800V0Z" fill="#1DF6FD"/>
<path d="M0.5 0.5H1799.5V2843.5H0.5V0.5Z" stroke="black"/>
</g>
<g clip-path="url(#clip1_3_2)">
<g filter="url(#filter1_d_3_2)">
<path d="M1800 0H0V2844H1800V0Z" fill="#1DF6FD"/>
<path d="M0.483398 0.405273H1799.52V2843.6H0.483398V0.405273Z" stroke="black"/>
</g>
</g>
<path d="M0 2180.4L33.3333 2140.41C66.6667 2100.41 133.333 2020.43 200 2027.83C266.667 2035.24 333.333 2130.04 400 2111.67C466.667 2093.6 533.333 1962.06 600 1936.59C666.667 1910.81 733.333 1990.8 800 2019.83C866.667 2049.16 933.333 2027.24 1000 2022.5C1066.67 2017.46 1133.33 2029.31 1200 2095.38C1266.67 2161.74 1333.33 2282.01 1400 2240.54C1466.67 2199.06 1533.33 1995.84 1600 1988.73C1666.67 1981.91 1733.33 2171.51 1766.67 2266.31L1800 2361.11V2846.96H1766.67C1733.33 2846.96 1666.67 2846.96 1600 2846.96C1533.33 2846.96 1466.67 2846.96 1400 2846.96C1333.33 2846.96 1266.67 2846.96 1200 2846.96C1133.33 2846.96 1066.67 2846.96 1000 2846.96C933.333 2846.96 866.667 2846.96 800 2846.96C733.333 2846.96 666.667 2846.96 600 2846.96C533.333 2846.96 466.667 2846.96 400 2846.96C333.333 2846.96 266.667 2846.96 200 2846.96C133.333 2846.96 66.6667 2846.96 33.3333 2846.96H0V2180.4Z" fill="#FCAF3C"/>
<path d="M296.912 465.155L333.133 246.973H424.113C440.449 246.973 453.765 249.282 464.064 253.898C474.362 258.515 481.606 264.978 485.797 273.287C490.058 281.597 491.265 291.221 489.419 302.158C487.927 310.397 484.873 317.783 480.257 324.317C475.711 330.78 470.029 336.178 463.211 340.51C456.393 344.772 448.865 347.755 440.626 349.459L440.2 351.59C449.007 351.945 456.784 354.289 463.531 358.621C470.349 362.954 475.392 369.026 478.659 376.839C481.926 384.58 482.672 393.671 480.896 404.111C478.978 415.83 474.255 426.306 466.727 435.539C459.27 444.701 449.433 451.945 437.217 457.272C425.001 462.527 410.868 465.155 394.816 465.155H296.912ZM356.89 422.648H389.49C400.782 422.648 409.518 420.482 415.697 416.15C421.947 411.746 425.64 405.709 426.777 398.039C427.7 392.428 427.203 387.598 425.285 383.55C423.368 379.431 420.172 376.27 415.697 374.069C411.223 371.796 405.576 370.66 398.758 370.66H365.2L356.89 422.648ZM371.059 336.675H400.356C406.038 336.675 411.258 335.716 416.017 333.799C420.846 331.881 424.824 329.111 427.949 325.489C431.145 321.867 433.133 317.499 433.914 312.385C435.122 305.07 433.453 299.317 428.907 295.127C424.362 290.937 417.721 288.841 408.985 288.841H378.943L371.059 336.675ZM613.424 394.523L628.978 301.519H680.967L653.694 465.155H604.049L609.056 434.687H607.352C602.309 444.701 594.887 452.655 585.086 458.55C575.285 464.374 564.241 467.286 551.954 467.286C540.804 467.286 531.429 464.729 523.829 459.616C516.23 454.502 510.832 447.364 507.636 438.202C504.511 428.969 503.943 418.174 505.931 405.816L523.403 301.519H575.498L559.838 395.589C558.488 404.466 559.66 411.462 563.353 416.576C567.118 421.689 573.012 424.246 581.038 424.246C586.223 424.246 591.088 423.11 595.633 420.837C600.179 418.493 604.014 415.12 607.139 410.716C610.335 406.242 612.43 400.844 613.424 394.523ZM848.252 351.483L801.271 352.762C801.342 349.282 800.56 346.228 798.927 343.6C797.293 340.901 794.985 338.806 792.002 337.314C789.019 335.823 785.468 335.077 781.349 335.077C774.673 335.077 768.671 336.569 763.344 339.552C758.089 342.535 755.141 346.405 754.502 351.164C754.005 353.721 754.715 355.958 756.633 357.875C758.55 359.722 762.812 361.356 769.417 362.776L800.099 368.742C815.866 371.867 827.3 377.3 834.403 385.042C841.576 392.712 844.133 402.868 842.073 415.51C840.227 426.306 835.468 435.645 827.798 443.529C820.198 451.412 810.504 457.52 798.714 461.853C786.995 466.114 774.033 468.245 759.829 468.245C735.823 468.245 717.712 463.415 705.496 453.756C693.352 444.026 687.67 431.135 688.451 415.084L739.161 413.806C739.374 419.843 741.398 424.388 745.234 427.442C749.14 430.425 754.431 431.988 761.107 432.13C768.423 432.272 774.744 430.745 780.07 427.549C785.397 424.353 788.38 420.411 789.019 415.723C789.445 412.669 788.415 410.29 785.93 408.586C783.515 406.881 779.005 405.354 772.4 404.005L744.701 398.571C728.792 395.517 717.286 389.765 710.184 381.313C703.153 372.79 700.738 361.924 702.94 348.714C704.786 338.202 709.119 329.289 715.937 321.973C722.826 314.587 731.81 308.976 742.89 305.141C754.04 301.306 766.754 299.388 781.029 299.388C803.898 299.388 821.157 304.04 832.805 313.344C844.523 322.577 849.673 335.29 848.252 351.483ZM335.761 768.155H288.531L380.061 586.337H438.566L469.728 768.155H422.498L402.522 632.147H401.102L335.761 768.155ZM341.443 696.6H440.164L434.483 729.981H335.761L341.443 696.6ZM489.303 768.155L512.031 631.792H554.2L550.028 656.65H551.448C555.414 647.653 560.592 640.965 566.984 636.586C573.376 632.147 580.301 629.927 587.759 629.927C589.771 629.927 591.783 630.075 593.795 630.371C595.867 630.608 597.82 630.963 599.655 631.437L593.263 669.256C591.25 668.487 588.617 667.924 585.362 667.569C582.106 667.155 579.147 666.948 576.484 666.948C571.335 666.948 566.54 668.102 562.102 670.41C557.722 672.659 553.993 675.826 550.915 679.91C547.897 683.934 545.914 688.669 544.967 694.114L532.716 768.155H489.303ZM594.528 768.155L617.255 631.792H659.425L655.252 656.65H656.673C660.638 647.653 665.817 640.965 672.209 636.586C678.601 632.147 685.526 629.927 692.983 629.927C694.995 629.927 697.008 630.075 699.02 630.371C701.092 630.608 703.045 630.963 704.879 631.437L698.487 669.256C696.475 668.487 693.841 667.924 690.586 667.569C687.331 667.155 684.372 666.948 681.708 666.948C676.559 666.948 671.765 668.102 667.326 670.41C662.946 672.659 659.218 675.826 656.14 679.91C653.122 683.934 651.139 688.669 650.192 694.114L637.941 768.155H594.528ZM699.752 768.155L722.48 631.792H765.892L743.165 768.155H699.752ZM747.249 615.812C741.094 615.812 736.092 613.77 732.245 609.686C728.398 605.602 726.889 600.719 727.718 595.037C728.546 589.296 731.446 584.414 736.418 580.389C741.39 576.364 746.923 574.352 753.02 574.352C759.175 574.352 764.117 576.364 767.846 580.389C771.633 584.414 773.113 589.296 772.284 595.037C771.574 600.719 768.733 605.602 763.762 609.686C758.849 613.77 753.345 615.812 747.249 615.812ZM925.805 631.792L856.291 768.155H806.575L782.605 631.792H826.728L836.316 725.719H837.736L878.486 631.792H925.805ZM954.147 770.464C945.506 770.464 938.049 769.013 931.775 766.113C925.56 763.154 921.003 758.686 918.103 752.708C915.262 746.73 914.581 739.273 916.061 730.336C917.363 722.76 919.76 716.397 923.252 711.248C926.803 706.04 931.153 701.808 936.303 698.553C941.511 695.298 947.311 692.812 953.703 691.096C960.095 689.379 966.783 688.225 973.767 687.633C981.58 686.923 987.912 686.154 992.766 685.325C997.678 684.496 1001.35 683.342 1003.77 681.863C1006.2 680.324 1007.68 678.193 1008.21 675.471V675.027C1008.92 670.469 1007.95 666.948 1005.28 664.462C1002.62 661.976 998.625 660.733 993.298 660.733C987.616 660.733 982.763 661.976 978.739 664.462C974.714 666.948 971.903 670.381 970.305 674.76L930.532 673.34C933.018 665.054 937.279 657.656 943.316 651.145C949.353 644.576 957.018 639.427 966.31 635.698C975.661 631.91 986.462 630.016 998.714 630.016C1007.35 630.016 1015.17 631.052 1022.15 633.123C1029.14 635.136 1035.02 638.095 1039.82 642.001C1044.67 645.848 1048.13 650.583 1050.21 656.206C1052.28 661.828 1052.72 668.25 1051.54 675.471L1036 768.155H995.163L998.359 749.157H997.293C994.097 753.773 990.339 757.679 986.018 760.875C981.757 764.071 976.963 766.468 971.636 768.066C966.31 769.665 960.48 770.464 954.147 770.464ZM972.435 742.054C976.993 742.054 981.313 741.107 985.397 739.214C989.481 737.32 992.914 734.715 995.695 731.401C998.536 728.027 1000.34 724.121 1001.11 719.682L1003.15 706.721C1001.91 707.372 1000.34 707.964 998.447 708.496C996.554 709.029 994.541 709.532 992.411 710.005C990.28 710.42 988.09 710.834 985.841 711.248C983.651 711.603 981.55 711.929 979.538 712.225C975.276 712.876 971.577 713.882 968.44 715.243C965.304 716.605 962.788 718.38 960.894 720.57C959.059 722.701 957.935 725.246 957.521 728.205C956.81 732.644 957.846 736.077 960.628 738.503C963.41 740.871 967.345 742.054 972.435 742.054ZM1136.14 586.337L1105.96 768.155H1062.55L1092.73 586.337H1136.14ZM443.893 864.701L419.745 1010.16H389.916L346.095 926.206H345.1L331.109 1010.16H295.953L320.1 864.701H350.356L393.822 948.508H395.029L408.808 864.701H443.893ZM492.703 1012.21C481.198 1012.21 471.704 1009.85 464.223 1005.11C456.79 1000.38 451.558 993.773 448.527 985.297C445.497 976.822 444.905 966.973 446.752 955.752C448.598 944.578 452.41 934.776 458.186 926.348C463.963 917.92 471.349 911.363 480.346 906.675C489.342 901.988 499.545 899.644 510.956 899.644C522.415 899.644 531.861 902.011 539.294 906.746C546.775 911.481 552.031 918.086 555.061 926.562C558.139 935.037 558.755 944.909 556.908 956.178C555.061 967.352 551.226 977.153 545.402 985.581C539.578 993.962 532.192 1000.5 523.243 1005.18C514.294 1009.87 504.114 1012.21 492.703 1012.21ZM496.61 986.008C500.871 986.008 504.683 984.729 508.044 982.172C511.453 979.616 514.318 976.041 516.638 971.448C518.958 966.855 520.615 961.528 521.61 955.468C522.604 949.502 522.699 944.27 521.894 939.772C521.136 935.226 519.526 931.699 517.064 929.189C514.602 926.633 511.264 925.354 507.05 925.354C502.789 925.354 498.953 926.656 495.544 929.26C492.135 931.817 489.271 935.392 486.951 939.985C484.678 944.53 483.044 949.857 482.05 955.965C481.056 961.931 480.937 967.163 481.695 971.661C482.453 976.159 484.086 979.687 486.596 982.243C489.105 984.753 492.443 986.008 496.61 986.008ZM645.438 901.064L641.105 926.633H572.284L576.617 901.064H645.438ZM595.296 874.928H630.026L613.265 975.851C612.933 977.982 612.98 979.71 613.407 981.036C613.88 982.314 614.732 983.238 615.963 983.806C617.242 984.327 618.804 984.587 620.651 984.587C621.929 984.587 623.35 984.445 624.912 984.161C626.475 983.877 627.658 983.664 628.463 983.522L629.6 1008.59C627.753 1009.11 625.267 1009.71 622.142 1010.37C619.065 1011.08 615.466 1011.53 611.347 1011.72C603.014 1012.05 596.124 1011.08 590.679 1008.81C585.282 1006.49 581.47 1002.89 579.245 998.01C577.067 993.133 576.641 987.026 577.966 979.687L595.296 874.928ZM644.976 1010.16L663.158 901.064H697.888L679.706 1010.16H644.976ZM682.973 888.28C678.049 888.28 674.048 886.647 670.971 883.38C667.893 880.113 666.685 876.206 667.348 871.661C668.011 867.068 670.331 863.162 674.309 859.942C678.286 856.723 682.713 855.113 687.59 855.113C692.514 855.113 696.468 856.723 699.451 859.942C702.481 863.162 703.665 867.068 703.002 871.661C702.434 876.206 700.161 880.113 696.184 883.38C692.254 886.647 687.85 888.28 682.973 888.28ZM782.139 901.064L777.806 926.633H707.636L711.968 901.064H782.139ZM708.275 1010.16L727.451 895.525C728.824 887.097 731.547 880.113 735.619 874.573C739.691 868.986 744.781 864.819 750.889 862.073C756.997 859.279 763.72 857.883 771.059 857.883C775.936 857.883 780.458 858.261 784.625 859.019C788.791 859.729 791.822 860.368 793.716 860.937L784.127 886.363C782.849 885.937 781.334 885.581 779.582 885.297C777.877 885.013 776.197 884.871 774.539 884.871C770.515 884.871 767.603 885.771 765.804 887.57C764.004 889.369 762.821 891.831 762.252 894.956L743.005 1010.16H708.275ZM780.718 1010.16L798.9 901.064H833.63L815.449 1010.16H780.718ZM818.716 888.28C813.791 888.28 809.79 886.647 806.713 883.38C803.635 880.113 802.428 876.206 803.091 871.661C803.753 867.068 806.074 863.162 810.051 859.942C814.028 856.723 818.455 855.113 823.332 855.113C828.256 855.113 832.21 856.723 835.193 859.942C838.223 863.162 839.407 867.068 838.744 871.661C838.176 876.206 835.903 880.113 831.926 883.38C827.996 886.647 823.592 888.28 818.716 888.28ZM888.194 1012.21C876.688 1012.21 867.194 1009.85 859.713 1005.11C852.28 1000.38 847.071 993.796 844.088 985.368C841.105 976.893 840.561 967.092 842.455 955.965C844.254 944.791 848.066 934.99 853.89 926.562C859.713 918.086 867.147 911.481 876.191 906.746C885.234 902.011 895.462 899.644 906.873 899.644C916.958 899.644 925.433 901.467 932.299 905.113C939.212 908.758 944.207 913.919 947.284 920.596C950.409 927.224 951.333 935.013 950.054 943.962H917.597C917.881 938.422 916.745 934.066 914.188 930.894C911.631 927.674 907.914 926.064 903.037 926.064C898.918 926.064 895.13 927.201 891.674 929.473C888.265 931.699 885.353 935.013 882.938 939.417C880.57 943.773 878.866 949.17 877.824 955.61C876.783 962.049 876.712 967.494 877.611 971.945C878.558 976.348 880.334 979.687 882.938 981.959C885.589 984.185 888.951 985.297 893.023 985.297C896.243 985.297 899.226 984.611 901.972 983.238C904.718 981.865 907.109 979.852 909.145 977.201C911.181 974.502 912.767 971.235 913.904 967.4H946.29C944.444 976.443 940.869 984.327 935.566 991.05C930.31 997.726 923.658 1002.93 915.608 1006.68C907.559 1010.37 898.421 1012.21 888.194 1012.21ZM987.359 1012C980.446 1012 974.48 1010.84 969.461 1008.52C964.49 1006.15 960.844 1002.58 958.524 997.797C956.251 993.015 955.707 987.049 956.89 979.9C957.932 973.839 959.85 968.749 962.643 964.63C965.484 960.463 968.964 957.078 973.083 954.473C977.25 951.869 981.89 949.881 987.004 948.508C992.118 947.134 997.468 946.211 1003.06 945.738C1009.31 945.169 1014.37 944.554 1018.25 943.891C1022.18 943.228 1025.12 942.305 1027.06 941.121C1029 939.89 1030.19 938.186 1030.61 936.008V935.652C1031.18 932.007 1030.4 929.189 1028.27 927.201C1026.14 925.212 1022.94 924.218 1018.68 924.218C1014.13 924.218 1010.25 925.212 1007.03 927.201C1003.81 929.189 1001.56 931.936 1000.29 935.439L968.467 934.303C970.456 927.674 973.865 921.756 978.694 916.547C983.524 911.292 989.655 907.172 997.089 904.189C1004.57 901.159 1013.21 899.644 1023.01 899.644C1029.93 899.644 1036.18 900.473 1041.76 902.13C1047.35 903.74 1052.06 906.107 1055.9 909.232C1059.78 912.31 1062.55 916.098 1064.21 920.596C1065.86 925.094 1066.22 930.231 1065.27 936.008L1052.84 1010.16H1020.17L1022.73 994.956H1021.88C1019.32 998.65 1016.31 1001.77 1012.86 1004.33C1009.45 1006.89 1005.61 1008.81 1001.35 1010.08C997.089 1011.36 992.425 1012 987.359 1012ZM1001.99 989.275C1005.64 989.275 1009.09 988.517 1012.36 987.002C1015.63 985.487 1018.37 983.403 1020.6 980.752C1022.87 978.053 1024.31 974.928 1024.93 971.377L1026.56 961.008C1025.57 961.528 1024.31 962.002 1022.8 962.428C1021.28 962.854 1019.67 963.257 1017.97 963.635C1016.27 963.967 1014.51 964.298 1012.71 964.63C1010.96 964.914 1009.28 965.174 1007.67 965.411C1004.26 965.932 1001.3 966.737 998.794 967.826C996.284 968.915 994.272 970.335 992.757 972.087C991.289 973.792 990.389 975.828 990.058 978.195C989.49 981.746 990.318 984.492 992.544 986.434C994.769 988.328 997.918 989.275 1001.99 989.275ZM1153.84 901.064L1149.5 926.633H1080.68L1085.02 901.064H1153.84ZM1103.69 874.928H1138.42L1121.66 975.851C1121.33 977.982 1121.38 979.71 1121.81 981.036C1122.28 982.314 1123.13 983.238 1124.36 983.806C1125.64 984.327 1127.2 984.587 1129.05 984.587C1130.33 984.587 1131.75 984.445 1133.31 984.161C1134.87 983.877 1136.06 983.664 1136.86 983.522L1138 1008.59C1136.15 1009.11 1133.67 1009.71 1130.54 1010.37C1127.46 1011.08 1123.86 1011.53 1119.75 1011.72C1111.41 1012.05 1104.52 1011.08 1099.08 1008.81C1093.68 1006.49 1089.87 1002.89 1087.64 998.01C1085.47 993.133 1085.04 987.026 1086.36 979.687L1103.69 874.928ZM1153.37 1010.16L1171.56 901.064H1206.29L1188.1 1010.16H1153.37ZM1191.37 888.28C1186.45 888.28 1182.45 886.647 1179.37 883.38C1176.29 880.113 1175.08 876.206 1175.75 871.661C1176.41 867.068 1178.73 863.162 1182.71 859.942C1186.68 856.723 1191.11 855.113 1195.99 855.113C1200.91 855.113 1204.87 856.723 1207.85 859.942C1210.88 863.162 1212.06 867.068 1211.4 871.661C1210.83 876.206 1208.56 880.113 1204.58 883.38C1200.65 886.647 1196.25 888.28 1191.37 888.28ZM1261.06 1012.21C1249.56 1012.21 1240.06 1009.85 1232.58 1005.11C1225.15 1000.38 1219.92 993.773 1216.89 985.297C1213.86 976.822 1213.26 966.973 1215.11 955.752C1216.96 944.578 1220.77 934.776 1226.55 926.348C1232.32 917.92 1239.71 911.363 1248.7 906.675C1257.7 901.988 1267.9 899.644 1279.32 899.644C1290.77 899.644 1300.22 902.011 1307.65 906.746C1315.13 911.481 1320.39 918.086 1323.42 926.562C1326.5 935.037 1327.11 944.909 1325.27 956.178C1323.42 967.352 1319.59 977.153 1313.76 985.581C1307.94 993.962 1300.55 1000.5 1291.6 1005.18C1282.65 1009.87 1272.47 1012.21 1261.06 1012.21ZM1264.97 986.008C1269.23 986.008 1273.04 984.729 1276.4 982.172C1279.81 979.616 1282.68 976.041 1285 971.448C1287.32 966.855 1288.97 961.528 1289.97 955.468C1290.96 949.502 1291.06 944.27 1290.25 939.772C1289.5 935.226 1287.89 931.699 1285.42 929.189C1282.96 926.633 1279.62 925.354 1275.41 925.354C1271.15 925.354 1267.31 926.656 1263.9 929.26C1260.49 931.817 1257.63 935.392 1255.31 939.985C1253.04 944.53 1251.4 949.857 1250.41 955.965C1249.42 961.931 1249.3 967.163 1250.05 971.661C1250.81 976.159 1252.45 979.687 1254.95 982.243C1257.46 984.753 1260.8 986.008 1264.97 986.008ZM1379.35 947.939L1368.98 1010.16H1334.25L1352.43 901.064H1385.46L1382.19 921.093H1383.4C1386.81 914.417 1391.76 909.185 1398.24 905.397C1404.73 901.562 1412.02 899.644 1420.12 899.644C1427.74 899.644 1434.11 901.348 1439.22 904.758C1444.34 908.167 1447.96 912.949 1450.09 919.104C1452.22 925.212 1452.58 932.385 1451.16 940.624L1439.51 1010.16H1404.78L1415.22 947.442C1416.26 941.429 1415.53 936.718 1413.02 933.309C1410.55 929.852 1406.53 928.124 1400.94 928.124C1397.3 928.124 1393.96 928.929 1390.93 930.539C1387.94 932.101 1385.44 934.35 1383.4 937.286C1381.41 940.222 1380.06 943.773 1379.35 947.939ZM309.802 1137.61C311.968 1124.44 315.733 1112.33 321.095 1101.28C326.493 1090.2 333.755 1079.92 342.881 1070.44H368.13C364.685 1073.96 361.329 1078.23 358.062 1083.28C354.831 1088.32 351.794 1093.84 348.953 1099.84C346.148 1105.84 343.716 1112.06 341.656 1118.49C339.596 1124.91 338.034 1131.29 336.968 1137.61C335.548 1145.99 334.998 1154.46 335.317 1163.02C335.672 1171.54 336.755 1179.46 338.566 1186.78C340.413 1194.06 342.846 1200.04 345.864 1204.73H320.669C314.738 1195.24 310.903 1184.98 309.163 1173.94C307.458 1162.86 307.672 1150.75 309.802 1137.61ZM359.194 1192.16L377.305 1083.06H422.795C430.963 1083.06 437.621 1084.22 442.77 1086.53C447.919 1088.83 451.541 1092.07 453.637 1096.22C455.767 1100.38 456.371 1105.19 455.448 1110.66C454.702 1114.78 453.175 1118.47 450.867 1121.74C448.594 1124.97 445.753 1127.67 442.344 1129.83C438.935 1131.96 435.171 1133.45 431.051 1134.31L430.838 1135.37C435.242 1135.55 439.13 1136.72 442.504 1138.89C445.913 1141.05 448.434 1144.09 450.068 1148C451.701 1151.87 452.074 1156.41 451.186 1161.63C450.227 1167.49 447.866 1172.73 444.102 1177.35C440.373 1181.93 435.455 1185.55 429.347 1188.21C423.239 1190.84 416.172 1192.16 408.146 1192.16H359.194ZM389.183 1170.9H405.483C411.129 1170.9 415.497 1169.82 418.587 1167.65C421.712 1165.45 423.558 1162.43 424.127 1158.6C424.588 1155.79 424.34 1153.38 423.381 1151.35C422.422 1149.29 420.824 1147.71 418.587 1146.61C416.35 1145.48 413.526 1144.91 410.117 1144.91H393.338L389.183 1170.9ZM396.268 1127.92H410.916C413.757 1127.92 416.367 1127.44 418.747 1126.48C421.161 1125.52 423.15 1124.13 424.713 1122.32C426.311 1120.51 427.305 1118.33 427.695 1115.77C428.299 1112.11 427.465 1109.24 425.192 1107.14C422.919 1105.05 419.599 1104 415.231 1104H400.21L396.268 1127.92ZM482.401 1192.16H454.063L508.981 1083.06H544.084L562.781 1192.16H534.443L522.458 1110.55H521.605L482.401 1192.16ZM485.81 1149.22H545.043L541.634 1169.25H482.401L485.81 1149.22ZM685.481 1083.06L667.371 1192.16H644.998L612.133 1129.19H611.387L600.893 1192.16H574.526L592.637 1083.06H615.329L647.928 1145.92H648.834L659.167 1083.06H685.481ZM735.14 1137.61C733.009 1150.75 729.245 1162.86 723.847 1173.94C718.449 1184.98 711.205 1195.24 702.114 1204.73H676.865C680.31 1201.21 683.648 1196.93 686.88 1191.89C690.147 1186.85 693.183 1181.32 695.988 1175.32C698.794 1169.32 701.226 1163.11 703.286 1156.68C705.381 1150.25 706.961 1143.9 708.027 1137.61C709.447 1129.19 709.98 1120.72 709.625 1112.2C709.305 1103.64 708.222 1095.72 706.375 1088.44C704.564 1081.13 702.15 1075.13 699.131 1070.44H724.326C730.257 1079.92 734.074 1090.2 735.779 1101.28C737.519 1112.33 737.306 1124.44 735.14 1137.61Z" fill="#1DB304"/>
<path d="M715.253 1462.23L688.56 1514.59H669.469L660.264 1462.23H677.207L680.889 1498.3H681.435L697.082 1462.23H715.253ZM733.543 1514.59L745.133 1444.78H761.804L757.474 1471.2H757.815C758.724 1469.61 759.929 1468.07 761.429 1466.59C762.952 1465.12 764.781 1463.91 766.918 1462.98C769.054 1462.03 771.497 1461.55 774.247 1461.55C777.883 1461.55 781.122 1462.5 783.963 1464.41C786.804 1466.32 788.872 1469.27 790.168 1473.24C791.463 1477.22 791.599 1482.29 790.577 1488.45C789.599 1494.38 787.838 1499.34 785.293 1503.34C782.747 1507.34 779.713 1510.34 776.19 1512.34C772.69 1514.34 769.008 1515.34 765.145 1515.34C762.508 1515.34 760.293 1514.91 758.497 1514.05C756.724 1513.19 755.304 1512.05 754.236 1510.64C753.19 1509.23 752.463 1507.72 752.054 1506.11H751.406L750.043 1514.59H733.543ZM754.236 1488.41C753.781 1491.23 753.758 1493.69 754.168 1495.78C754.599 1497.87 755.429 1499.49 756.656 1500.65C757.906 1501.79 759.554 1502.36 761.599 1502.36C763.645 1502.36 765.474 1501.79 767.088 1500.65C768.702 1499.49 770.054 1497.87 771.145 1495.78C772.236 1493.69 773.008 1491.23 773.463 1488.41C773.918 1485.59 773.94 1483.15 773.531 1481.08C773.145 1479.02 772.338 1477.41 771.111 1476.28C769.883 1475.14 768.236 1474.57 766.168 1474.57C764.122 1474.57 762.281 1475.13 760.645 1476.24C759.031 1477.36 757.668 1478.95 756.554 1481.02C755.463 1483.08 754.69 1485.55 754.236 1488.41ZM819.29 1515.58C813.812 1515.58 809.267 1514.5 805.653 1512.34C802.062 1510.16 799.54 1507.06 798.085 1503.04C796.631 1498.99 796.369 1494.19 797.301 1488.62C798.21 1483.21 800.062 1478.48 802.858 1474.44C805.676 1470.37 809.222 1467.21 813.494 1464.96C817.767 1462.69 822.528 1461.55 827.778 1461.55C831.506 1461.55 834.812 1462.13 837.699 1463.29C840.585 1464.45 842.972 1466.17 844.858 1468.47C846.744 1470.74 848.028 1473.54 848.71 1476.86C849.392 1480.17 849.369 1483.98 848.642 1488.28L847.994 1492.44H802.517L804.051 1482.75H834.051C834.324 1480.98 834.176 1479.4 833.608 1478.02C833.04 1476.63 832.119 1475.55 830.847 1474.78C829.597 1473.98 828.062 1473.58 826.244 1473.58C824.403 1473.58 822.676 1474.02 821.062 1474.88C819.472 1475.72 818.119 1476.86 817.006 1478.29C815.892 1479.72 815.165 1481.33 814.824 1483.13L813.017 1493.05C812.653 1495.25 812.756 1497.14 813.324 1498.71C813.892 1500.28 814.869 1501.48 816.256 1502.32C817.642 1503.14 819.426 1503.55 821.608 1503.55C823.062 1503.55 824.426 1503.36 825.699 1502.97C826.972 1502.56 828.108 1501.96 829.108 1501.16C830.131 1500.34 830.96 1499.36 831.597 1498.2L846.801 1498.64C845.574 1502.07 843.676 1505.06 841.108 1507.61C838.54 1510.13 835.403 1512.09 831.699 1513.5C828.017 1514.89 823.881 1515.58 819.29 1515.58ZM891.077 1462.23L888.997 1474.5H855.963L858.043 1462.23H891.077ZM867.008 1449.69H883.679L875.633 1498.13C875.474 1499.15 875.497 1499.98 875.702 1500.62C875.929 1501.23 876.338 1501.67 876.929 1501.95C877.543 1502.2 878.293 1502.32 879.179 1502.32C879.793 1502.32 880.474 1502.25 881.224 1502.12C881.974 1501.98 882.543 1501.88 882.929 1501.81L883.474 1513.84C882.588 1514.09 881.395 1514.38 879.895 1514.7C878.418 1515.04 876.69 1515.25 874.713 1515.34C870.713 1515.5 867.406 1515.04 864.793 1513.95C862.202 1512.83 860.372 1511.11 859.304 1508.77C858.258 1506.42 858.054 1503.49 858.69 1499.97L867.008 1449.69ZM905.48 1515.48C902.162 1515.48 899.298 1514.92 896.889 1513.81C894.503 1512.67 892.753 1510.96 891.639 1508.66C890.548 1506.37 890.287 1503.5 890.855 1500.07C891.355 1497.16 892.275 1494.72 893.616 1492.74C894.98 1490.74 896.65 1489.12 898.628 1487.87C900.628 1486.62 902.855 1485.66 905.31 1485C907.764 1484.34 910.332 1483.9 913.014 1483.67C916.014 1483.4 918.446 1483.11 920.31 1482.79C922.196 1482.47 923.605 1482.03 924.537 1481.46C925.469 1480.87 926.037 1480.05 926.241 1479V1478.83C926.514 1477.08 926.139 1475.73 925.116 1474.78C924.094 1473.82 922.56 1473.34 920.514 1473.34C918.332 1473.34 916.469 1473.82 914.923 1474.78C913.378 1475.73 912.298 1477.05 911.685 1478.73L896.412 1478.19C897.366 1475 899.003 1472.16 901.321 1469.66C903.639 1467.14 906.582 1465.16 910.15 1463.73C913.741 1462.28 917.889 1461.55 922.594 1461.55C925.912 1461.55 928.912 1461.95 931.594 1462.74C934.275 1463.52 936.537 1464.65 938.378 1466.15C940.241 1467.63 941.571 1469.45 942.366 1471.61C943.162 1473.77 943.332 1476.23 942.878 1479L936.912 1514.59H921.23L922.457 1507.3H922.048C920.821 1509.07 919.378 1510.57 917.719 1511.8C916.082 1513.03 914.241 1513.95 912.196 1514.56C910.15 1515.17 907.912 1515.48 905.48 1515.48ZM912.503 1504.57C914.253 1504.57 915.912 1504.21 917.48 1503.48C919.048 1502.75 920.366 1501.75 921.435 1500.48C922.525 1499.19 923.219 1497.69 923.514 1495.98L924.298 1491C923.821 1491.25 923.219 1491.48 922.491 1491.69C921.764 1491.89 920.991 1492.08 920.173 1492.27C919.355 1492.42 918.514 1492.58 917.65 1492.74C916.81 1492.88 916.003 1493 915.23 1493.12C913.594 1493.37 912.173 1493.75 910.969 1494.28C909.764 1494.8 908.798 1495.48 908.071 1496.32C907.366 1497.14 906.935 1498.12 906.775 1499.25C906.503 1500.96 906.9 1502.28 907.969 1503.21C909.037 1504.12 910.548 1504.57 912.503 1504.57ZM996.23 1516.3C990.116 1516.3 985.082 1514.86 981.128 1511.97C977.173 1509.06 974.457 1504.89 972.98 1499.46C971.503 1494 971.423 1487.45 972.741 1479.79C974.037 1472.13 976.321 1465.63 979.594 1460.29C982.866 1454.92 986.935 1450.84 991.798 1448.05C996.662 1445.23 1002.13 1443.82 1008.2 1443.82C1014.29 1443.82 1019.3 1445.23 1023.23 1448.05C1027.18 1450.84 1029.91 1454.92 1031.41 1460.29C1032.91 1465.63 1033.03 1472.13 1031.75 1479.79C1030.48 1487.45 1028.2 1494 1024.9 1499.46C1021.63 1504.91 1017.55 1509.08 1012.66 1511.97C1007.8 1514.86 1002.32 1516.3 996.23 1516.3ZM998.548 1502.49C1002.18 1502.49 1005.41 1500.63 1008.23 1496.9C1011.05 1493.17 1013.11 1487.47 1014.4 1479.79C1015.26 1474.77 1015.46 1470.61 1014.98 1467.31C1014.53 1464.02 1013.51 1461.56 1011.95 1459.95C1010.4 1458.33 1008.42 1457.53 1006.01 1457.53C1002.38 1457.53 999.128 1459.36 996.264 1463.02C993.4 1466.65 991.332 1472.24 990.06 1479.79C989.219 1484.92 989.037 1489.17 989.514 1492.54C989.991 1495.88 991.014 1498.38 992.582 1500.04C994.15 1501.67 996.139 1502.49 998.548 1502.49ZM1042.68 1515.58C1040.2 1515.58 1038.18 1514.72 1036.61 1512.99C1035.04 1511.27 1034.36 1509.17 1034.57 1506.72C1034.79 1504.31 1035.86 1502.25 1037.77 1500.55C1039.68 1498.84 1041.86 1497.99 1044.32 1497.99C1046.66 1497.99 1048.62 1498.84 1050.21 1500.55C1051.83 1502.25 1052.52 1504.31 1052.29 1506.72C1052.16 1508.36 1051.6 1509.84 1050.62 1511.19C1049.67 1512.53 1048.49 1513.59 1047.08 1514.39C1045.67 1515.19 1044.2 1515.58 1042.68 1515.58ZM1096.87 1444.78L1085.28 1514.59H1068.44L1077.44 1460.53H1077.03L1059.82 1470.07L1062.2 1455.48L1081.23 1444.78H1096.87Z" fill="#D9D9D9"/>
</g>
<defs>
<filter id="filter0_d_3_2" x="-4" y="0" width="1808" height="2852" filterUnits="userSpaceOnUse" color-interpolation-filters="sRGB">
<feFlood flood-opacity="0" result="BackgroundImageFix"/>
<feColorMatrix in="SourceAlpha" type="matrix" values="0 0 0 0 0 0 0 0 0 0 0 0 0 0 0 0 0 0 127 0" result="hardAlpha"/>
<feOffset dy="4"/>
<feGaussianBlur stdDeviation="2"/>
<feComposite in2="hardAlpha" operator="out"/>
<feColorMatrix type="matrix" values="0 0 0 0 0 0 0 0 0 0 0 0 0 0 0 0 0 0 0.25 0"/>
<feBlend mode="normal" in2="BackgroundImageFix" result="effect1_dropShadow_3_2"/>
<feBlend mode="normal" in="SourceGraphic" in2="effect1_dropShadow_3_2" result="shape"/>
</filter>
<filter id="filter1_d_3_2" x="-4.0166" y="-0.0947266" width="1808.03" height="2852.19" filterUnits="userSpaceOnUse" color-interpolation-filters="sRGB">
<feFlood flood-opacity="0" result="BackgroundImageFix"/>
<feColorMatrix in="SourceAlpha" type="matrix" values="0 0 0 0 0 0 0 0 0 0 0 0 0 0 0 0 0 0 127 0" result="hardAlpha"/>
<feOffset dy="4"/>
<feGaussianBlur stdDeviation="2"/>
<feComposite in2="hardAlpha" operator="out"/>
<feColorMatrix type="matrix" values="0 0 0 0 0 0 0 0 0 0 0 0 0 0 0 0 0 0 0.25 0"/>
<feBlend mode="normal" in2="BackgroundImageFix" result="effect1_dropShadow_3_2"/>
<feBlend mode="normal" in="SourceGraphic" in2="effect1_dropShadow_3_2" result="shape"/>
</filter>
<clipPath id="clip0_3_2">
<rect width="1800" height="2844" fill="white"/>
</clipPath>
<clipPath id="clip1_3_2">
<rect width="1800" height="2844" fill="white"/>
</clipPath>
</defs>
</svg>
