<svg width="1800" height="2844" viewBox="0 0 1800 2844" fill="none" xmlns="http://www.w3.org/2000/svg">
<g clip-path="url(#clip0_4_108)">
<path d="M1800 0H0V2844H1800V0Z" fill="#00B18D"/>
<path d="M1883 2698.24C1926.33 2804.3 1874.33 2949.76 1767.33 3015.82C1660.33 3081.89 1499 3068.56 1391 2997.16C1282.67 2925.47 1228 2796.01 1265.67 2696.17C1303.33 2596.63 1433.33 2527.31 1567.67 2526.12C1701.67 2524.94 1840 2591.89 1883 2698.24Z" stroke="#79EC0B" stroke-width="20"/>
<path d="M974.334 1104.12C997.667 1165.45 978 1242.47 925.334 1275.65C873 1308.54 787.667 1297.57 727.334 1257.88C666.667 1218.48 631.334 1150.63 650.334 1094.94C669.334 1039.24 743 995.696 813.334 996.585C883.667 997.77 950.667 1043.1 974.334 1104.12Z" stroke="#79EC0B" stroke-width="20"/>
<path d="M1831 338.91C1864 427.488 1812.67 542.137 1716.33 604.942C1620 667.747 1479.33 678.708 1397 624.198C1314.67 569.688 1290.67 449.411 1328.33 355.203C1365.67 260.996 1464.33 193.155 1572.67 190.488C1680.67 187.822 1798.33 250.331 1831 338.91Z" stroke="#79EC0B" stroke-width="20"/>
<g clip-path="url(#clip1_4_108)">
<path d="M1800 0H0V2844H1800V0Z" fill="#00B18D"/>
<path d="M1783 -70.2108C1816 -47.1033 1843.33 -16.8858 1846.33 14.8129C1849.33 46.8079 1828.33 79.9879 1806 111.094C1783.67 142.2 1760.33 171.233 1729 182.194C1697.33 193.155 1658 186.045 1621 173.603C1584 161.16 1549.67 143.089 1528 115.834C1506.33 88.5792 1497 52.1404 1504.67 18.6642C1512.33 -14.5158 1537 -44.4371 1567.67 -67.8408C1598.67 -91.2446 1636 -108.131 1674 -108.723C1711.67 -109.316 1750 -93.3183 1783 -70.2108Z" stroke="#79EC0B" stroke-width="20"/>
<path d="M1631 392.532C1650.67 410.899 1657.33 439.339 1660.67 466.298C1663.67 493.553 1663.33 519.327 1651 540.064C1638.33 560.506 1614 575.614 1587.33 583.613C1560.67 591.316 1531.67 591.908 1503.67 585.391C1475.67 578.577 1448.33 564.357 1430 542.731C1411.67 520.808 1402.33 491.183 1409.33 465.706C1416 439.932 1439.33 418.306 1464.67 400.827C1490.33 383.348 1518.67 370.017 1548.67 367.647C1579 365.573 1611.67 374.164 1631 392.532Z" stroke="#79EC0B" stroke-width="20"/>
<path d="M382 934.373C411.333 953.629 433.667 982.958 438 1013.77C442.333 1044.58 428.667 1076.87 409 1105.01C389.333 1133.16 363.333 1156.86 332.667 1166.04C301.667 1175.22 265.333 1169.89 233.667 1157.45C202 1145.3 174.667 1126.64 156.667 1101.75C138.333 1076.87 129 1045.76 133.666 1016.14C138.667 986.809 158 958.961 184.667 939.409C211.667 919.56 245.667 908.006 281 906.821C316.333 905.636 352.667 914.82 382 934.373Z" stroke="#79EC0B" stroke-width="20"/>
<path d="M1419 1595.01C1446.67 1617.82 1470.33 1643 1476 1671.15C1481.67 1699.59 1469.67 1730.69 1451 1757.06C1432 1783.72 1406.67 1805.64 1376.33 1815.42C1345.67 1825.2 1310.33 1822.83 1275.33 1813.94C1240.67 1805.05 1206 1789.65 1186 1764.17C1166.33 1738.69 1161.33 1703.44 1169 1670.55C1176.67 1637.97 1196.67 1608.05 1225 1585.53C1253.33 1563.02 1290 1547.61 1324.33 1549.98C1358.67 1552.35 1391 1572.2 1419 1595.01Z" stroke="#79EC0B" stroke-width="20"/>
<path d="M733 1640.93C758.333 1656.93 776.667 1683 778 1709.07C779.333 1735.14 763.333 1760.91 746 1784.31C729 1808.01 710.333 1829.34 685.333 1838.82C660.333 1848.3 629.333 1845.93 601.333 1836.45C573.667 1826.97 549.333 1810.38 535 1788.76C520.667 1766.84 516.333 1739.58 521 1713.51C525.667 1687.44 539 1662.26 561 1645.67C582.667 1629.08 613 1621.08 644.333 1619.9C675.667 1619.01 707.667 1624.93 733 1640.93Z" stroke="#79EC0B" stroke-width="20"/>
<path d="M1252 2541.83C1276.33 2560.79 1284 2596.34 1287.33 2629.81C1290.67 2663.58 1289.67 2695.58 1276 2724.91C1262.33 2754.24 1236 2780.9 1203.67 2790.08C1171.33 2798.97 1133 2790.08 1096.67 2777.94C1060.33 2765.49 1025.67 2749.79 1006 2724.32C986.334 2698.54 981.667 2663.29 990.334 2631.89C999.334 2600.48 1021.67 2573.23 1050 2555.16C1078.33 2536.79 1112.67 2527.61 1150 2524.35C1187.33 2520.79 1228 2523.16 1252 2541.83Z" stroke="#79EC0B" stroke-width="20"/>
<path d="M439.334 1991.1C462 2008.28 475.334 2034.94 481.334 2062.79C487 2090.64 485.334 2119.97 471.667 2145.74C458.334 2171.51 433 2193.44 403.667 2201.43C374 2209.14 340.334 2202.92 310.667 2191.36C281.334 2179.51 256 2162.63 237.667 2139.52C219.334 2116.41 207.667 2087.38 211 2058.35C214 2029.61 231.667 2001.17 258 1984.58C284 1967.69 318.667 1962.95 352 1964.43C385 1965.92 417 1973.91 439.334 1991.1Z" stroke="#79EC0B" stroke-width="20"/>
<path d="M833.333 993.919C862.333 1017.03 882.333 1047.54 887 1078.94C891.333 1110.64 880 1143.53 860.667 1171.08C841.333 1198.63 814 1221.14 781 1233.88C747.667 1246.62 708.667 1249.58 673.667 1239.51C638.667 1229.44 608 1206.33 590.667 1177.59C573.333 1148.56 569.333 1113.9 578 1083.39C587 1052.87 609 1026.51 636.333 1003.1C664 979.995 697 959.85 732 957.48C767.333 955.11 804.667 970.812 833.333 993.919Z" stroke="#79EC0B" stroke-width="20"/>
<path d="M484.666 230.779C514 250.035 539 275.809 547.333 305.73C555.333 335.948 546.666 370.313 528.666 401.419C510.333 432.525 483 460.669 448.666 471.334C414.333 482.295 373 476.37 337.666 462.446C302.333 448.226 272.666 426.304 253.666 398.16C235 370.313 227 336.244 232.333 303.064C237.333 270.18 255.666 238.185 284.333 218.633C312.666 199.08 351.333 192.266 387 195.229C423 198.191 455.666 211.226 484.666 230.779Z" stroke="#79EC0B" stroke-width="20"/>
<path d="M1814.33 1237.73C1835 1258.47 1842.33 1287.5 1848 1316.83C1853.67 1346.16 1857.67 1375.79 1845 1398.3C1832.67 1421.11 1803.33 1436.81 1773.67 1443.03C1744 1449.26 1713.33 1446 1686 1436.52C1658.33 1427.33 1633.33 1411.93 1614.33 1390.01C1595.33 1368.08 1582.33 1339.94 1588 1315.05C1593.67 1290.17 1618.67 1269.14 1645 1248.99C1671 1229.14 1699 1210.48 1729.67 1207.52C1760.33 1204.26 1794 1216.7 1814.33 1237.73Z" stroke="#79EC0B" stroke-width="20"/>
<path d="M867.666 40.8826C894.333 57.7689 910 89.1714 914.666 120.87C919 152.273 912.666 184.564 895 210.338C877.333 236.111 848.666 255.664 815.333 268.699C781.666 281.438 743.666 287.955 709.666 279.068C675.666 270.476 646 246.48 631.666 217.744C617.666 189.008 619 155.531 625.333 122.944C632 90.3564 643 58.3614 667.666 40.8826C692 23.4039 729.333 20.4414 766.666 20.4414C804 20.4414 841.333 23.7001 867.666 40.8826Z" stroke="#79EC0B" stroke-width="20"/>
<path d="M1209.67 2121.45C1236 2138.33 1259.33 2161.74 1266.33 2188.99C1273.67 2216.25 1265 2247.35 1246 2269.57C1227 2291.79 1197.33 2305.42 1167.67 2312.53C1138 2319.64 1108 2320.23 1079.33 2313.12C1050.67 2305.71 1023.67 2290.31 1004.67 2267.79C985.333 2244.98 974 2215.06 977.667 2185.44C981.333 2156.11 999.667 2127.37 1026.67 2110.78C1053.33 2093.9 1088.33 2088.86 1120.67 2091.53C1153.33 2094.19 1183 2104.56 1209.67 2121.45Z" stroke="#79EC0B" stroke-width="20"/>
<g clip-path="url(#clip2_4_108)">
<path d="M1800 0H0V2844H1800V0Z" fill="#00B18D"/>
<path d="M923.666 2300.68C949.333 2332.38 958.333 2372.67 950.666 2412.36C942.666 2451.76 918 2490.57 878 2511.31C838.333 2532.05 783.666 2535.01 737.333 2516.94C691 2499.16 653 2460.65 640.666 2415.92C628.333 2371.18 641.667 2320.53 674.667 2287.35C707.666 2254.46 760.666 2239.35 808 2242.91C855.666 2246.76 898 2269.27 923.666 2300.68Z" stroke="#79EC0B" stroke-width="20"/>
<path d="M197.667 2519.31C223.333 2548.34 233 2589.22 225 2628.63C217 2668.32 191.667 2706.54 152.667 2725.8C113.333 2745.05 60.3333 2744.76 19.6666 2725.8C-21.0001 2706.84 -49 2669.21 -58.6667 2628.33C-68.6667 2587.74 -60 2543.9 -32.6667 2514.57C-5.33339 2485.24 40.6666 2470.13 84.9999 2471.32C129 2472.8 171.667 2490.28 197.667 2519.31Z" stroke="#79EC0B" stroke-width="20"/>
<path d="M946.667 1856.01C971.333 1879.11 983 1915.85 972.667 1945.47C962.667 1975.1 931 1997.61 897.333 2009.46C863.333 2021.61 827.333 2023.09 793.667 2012.13C760 2000.87 729 1976.88 719.667 1946.66C710.333 1916.44 723 1880.3 747.667 1856.89C772.667 1833.79 809.667 1823.42 847 1823.12C884.333 1822.83 922 1832.6 946.667 1856.01Z" stroke="#79EC0B" stroke-width="20"/>
<path d="M385.333 540.656C407.666 565.541 411.666 602.868 401 634.271C390.333 665.377 364.666 690.855 333 704.186C301 717.517 263 718.998 232 706.26C201 693.521 176.666 666.858 166.666 634.863C156.666 603.165 161.333 566.43 183 541.545C205 516.66 244 503.328 283.666 503.328C323.333 503.032 363.333 515.475 385.333 540.656Z" stroke="#79EC0B" stroke-width="20"/>
<path d="M1530.33 696.779C1550.67 724.034 1553 759.584 1543 790.394C1533.33 820.908 1511 846.978 1479.67 862.976C1448.67 878.973 1408.33 884.898 1378 872.159C1347.33 859.421 1327 827.722 1320.33 795.134C1313.67 762.547 1321 729.071 1342 701.519C1363 673.968 1398.33 652.638 1435 651.453C1471.67 650.268 1510 669.524 1530.33 696.779Z" stroke="#79EC0B" stroke-width="20"/>
<path d="M231.999 1713.81C259.333 1741.65 267.999 1784.91 256.666 1821.94C244.999 1858.97 212.999 1889.48 172.999 1907.26C132.999 1925.03 85.3328 1930.36 50.6662 1914.37C15.9995 1898.07 -5.33383 1861.04 -11.3338 1824.31C-17.6672 1787.57 -8.66716 1751.43 14.6662 1724.17C37.9995 1697.22 75.6662 1679.14 117.333 1676.18C158.999 1673.52 204.666 1685.66 231.999 1713.81Z" stroke="#79EC0B" stroke-width="20"/>
<path d="M1770.67 1425.55C1794.33 1452.51 1805.67 1487.17 1798.67 1518.87C1791.33 1550.87 1765.33 1579.9 1732.67 1592.64C1699.67 1605.08 1660 1601.23 1625 1587.01C1590 1572.49 1559.67 1547.91 1551.33 1517.98C1543 1488.06 1556.67 1452.81 1581.33 1425.55C1606 1398.3 1641.33 1378.45 1676.67 1378.45C1712 1378.45 1747.33 1398.3 1770.67 1425.55Z" stroke="#79EC0B" stroke-width="20"/>
</g>
</g>
</g>
<defs>
<clipPath id="clip0_4_108">
<rect width="1800" height="2844" fill="white"/>
</clipPath>
<clipPath id="clip1_4_108">
<rect width="1800" height="2844" fill="white"/>
</clipPath>
<clipPath id="clip2_4_108">
<rect width="1800" height="2844" rx="100" fill="white"/>
</clipPath>
</defs>
</svg>
